<svg xmlns="http://www.w3.org/2000/svg" xmlns:xlink="http://www.w3.org/1999/xlink" width="500" zoomAndPan="magnify" viewBox="0 0 375 374.999991" height="500" preserveAspectRatio="xMidYMid meet" version="1.0"><defs><g/><clipPath id="cd8611cc30"><path d="M 161 76 L 232 76 L 232 204.769531 L 161 204.769531 Z M 161 76 " clip-rule="nonzero"/></clipPath><clipPath id="0a57a229a9"><path d="M 201 129 L 309.597656 129 L 309.597656 180 L 201 180 Z M 201 129 " clip-rule="nonzero"/></clipPath><clipPath id="38ad8fead8"><path d="M 201 86 L 309.597656 86 L 309.597656 140 L 201 140 Z M 201 86 " clip-rule="nonzero"/></clipPath><clipPath id="40d8216dd9"><path d="M 150 76 L 221 76 L 221 204.769531 L 150 204.769531 Z M 150 76 " clip-rule="nonzero"/></clipPath><clipPath id="3ffd88f6ad"><path d="M 65.097656 121 L 74 121 L 74 133 L 65.097656 133 Z M 65.097656 121 " clip-rule="nonzero"/></clipPath></defs><rect x="-37.5" width="450" fill="#ffffff" y="-37.499999" height="449.999989" fill-opacity="1"/><rect x="-37.5" width="450" fill="#1b2130" y="-37.499999" height="449.999989" fill-opacity="1"/><g clip-path="url(#cd8611cc30)"><path fill="#bd653e" d="M 228.421875 76.085938 L 231.480469 77.691406 C 231.640625 77.777344 231.746094 77.902344 231.800781 78.074219 C 231.851562 78.246094 231.839844 78.414062 231.753906 78.574219 L 166.070312 204.21875 C 165.988281 204.375 165.859375 204.484375 165.6875 204.535156 C 165.515625 204.589844 165.351562 204.574219 165.191406 204.492188 L 162.132812 202.882812 C 161.972656 202.800781 161.867188 202.671875 161.8125 202.5 C 161.761719 202.328125 161.777344 202.164062 161.859375 202.003906 L 227.542969 76.359375 C 227.625 76.199219 227.753906 76.09375 227.925781 76.039062 C 228.097656 75.988281 228.261719 76 228.421875 76.085938 Z M 228.421875 76.085938 " fill-opacity="1" fill-rule="nonzero"/></g><g clip-path="url(#0a57a229a9)"><path fill="#fdb653" d="M 284.683594 178.519531 C 276.3125 180.515625 267.390625 178.394531 259.792969 174.347656 C 252.1875 170.3125 245.71875 164.476562 239.429688 158.601562 C 233.140625 152.726562 226.890625 146.695312 219.574219 142.164062 C 214.140625 138.78125 207.816406 136.21875 201.457031 136.945312 C 211.445312 130.171875 236.847656 128.496094 261.652344 136.675781 C 288.789062 145.636719 306.269531 132.277344 309.542969 129.941406 C 303.304688 147.039062 295.230469 163.691406 284.683594 178.523438 Z M 284.683594 178.519531 " fill-opacity="1" fill-rule="nonzero"/></g><g clip-path="url(#38ad8fead8)"><path fill="#c92929" d="M 309.542969 129.9375 C 306.269531 132.273438 288.789062 145.632812 261.652344 136.671875 C 236.847656 128.492188 211.445312 130.171875 201.457031 136.941406 C 208.054688 119.085938 216.585938 101.910156 227.503906 86.320312 C 235.992188 87.167969 243.566406 92.03125 249.96875 97.695312 C 256.359375 103.351562 261.9375 109.917969 268.582031 115.265625 C 280.121094 124.523438 294.777344 129.773438 309.542969 129.9375 Z M 309.542969 129.9375 " fill-opacity="1" fill-rule="nonzero"/></g><path fill="#1b2130" d="M 227.710938 86.871094 C 227.652344 86.871094 227.585938 86.859375 227.527344 86.839844 C 225.984375 86.308594 224.546875 85.421875 223.386719 84.273438 C 223.164062 84.058594 223.164062 83.707031 223.375 83.484375 C 223.589844 83.265625 223.941406 83.265625 224.160156 83.476562 C 225.210938 84.507812 226.503906 85.308594 227.890625 85.789062 C 228.179688 85.886719 228.335938 86.203125 228.234375 86.492188 C 228.15625 86.722656 227.941406 86.871094 227.710938 86.871094 Z M 227.710938 86.871094 " fill-opacity="1" fill-rule="nonzero"/><path fill="#1b2130" d="M 201.527344 137.40625 C 201.476562 137.40625 201.429688 137.402344 201.378906 137.386719 C 200.5 137.148438 198.15625 135.941406 196.921875 134.910156 C 196.6875 134.714844 196.660156 134.359375 196.855469 134.125 C 197.050781 133.890625 197.402344 133.859375 197.636719 134.054688 C 198.726562 134.972656 200.921875 136.109375 201.671875 136.308594 C 201.972656 136.386719 202.140625 136.695312 202.0625 136.992188 C 201.996094 137.242188 201.769531 137.402344 201.527344 137.402344 Z M 201.527344 137.40625 " fill-opacity="1" fill-rule="nonzero"/><g clip-path="url(#40d8216dd9)"><path fill="#bd653e" d="M 220.460938 202.882812 L 217.398438 204.492188 C 217.242188 204.574219 217.074219 204.589844 216.902344 204.535156 C 216.734375 204.480469 216.605469 204.375 216.523438 204.214844 L 150.835938 78.570312 C 150.753906 78.414062 150.738281 78.246094 150.792969 78.074219 C 150.847656 77.902344 150.953125 77.777344 151.113281 77.691406 L 154.171875 76.082031 C 154.332031 76 154.496094 75.984375 154.667969 76.039062 C 154.839844 76.09375 154.964844 76.199219 155.050781 76.359375 L 220.734375 202.003906 C 220.816406 202.164062 220.832031 202.328125 220.777344 202.5 C 220.726562 202.671875 220.617188 202.800781 220.460938 202.882812 Z M 220.460938 202.882812 " fill-opacity="1" fill-rule="nonzero"/></g><path fill="#fdb653" d="M 97.910156 178.519531 C 106.28125 180.515625 115.207031 178.394531 122.804688 174.347656 C 130.410156 170.3125 136.878906 164.476562 143.167969 158.601562 C 149.457031 152.726562 155.707031 146.695312 163.023438 142.164062 C 168.457031 138.78125 174.78125 136.21875 181.136719 136.945312 C 171.148438 130.171875 145.75 128.496094 120.941406 136.675781 C 93.804688 145.636719 76.324219 132.277344 73.050781 129.941406 C 79.292969 147.039062 87.363281 163.691406 97.910156 178.523438 Z M 97.910156 178.519531 " fill-opacity="1" fill-rule="nonzero"/><path fill="#c92929" d="M 73.050781 129.9375 C 76.324219 132.273438 93.804688 145.632812 120.941406 136.671875 C 145.75 128.492188 171.148438 130.171875 181.136719 136.941406 C 174.542969 119.085938 166.007812 101.910156 155.089844 86.320312 C 146.601562 87.167969 139.027344 92.03125 132.625 97.695312 C 126.234375 103.351562 120.660156 109.917969 114.011719 115.265625 C 102.476562 124.523438 87.820312 129.773438 73.050781 129.9375 Z M 73.050781 129.9375 " fill-opacity="1" fill-rule="nonzero"/><path fill="#1b2130" d="M 154.886719 86.871094 C 154.65625 86.871094 154.441406 86.722656 154.363281 86.492188 C 154.265625 86.203125 154.417969 85.886719 154.707031 85.789062 C 156.097656 85.308594 157.382812 84.507812 158.433594 83.476562 C 158.652344 83.261719 159 83.265625 159.222656 83.484375 C 159.4375 83.707031 159.429688 84.058594 159.210938 84.273438 C 158.042969 85.421875 156.613281 86.3125 155.066406 86.839844 C 155.007812 86.859375 154.945312 86.871094 154.886719 86.871094 Z M 154.886719 86.871094 " fill-opacity="1" fill-rule="nonzero"/><path fill="#1b2130" d="M 181.070312 137.40625 C 180.824219 137.40625 180.601562 137.246094 180.53125 136.996094 C 180.453125 136.695312 180.628906 136.394531 180.921875 136.316406 C 181.671875 136.113281 183.871094 134.972656 184.960938 134.0625 C 185.195312 133.867188 185.546875 133.894531 185.742188 134.128906 C 185.9375 134.363281 185.90625 134.71875 185.671875 134.914062 C 184.441406 135.949219 182.097656 137.152344 181.214844 137.394531 C 181.167969 137.40625 181.117188 137.414062 181.070312 137.414062 Z M 181.070312 137.40625 " fill-opacity="1" fill-rule="nonzero"/><path fill="#fdd689" d="M 292.730469 183.40625 C 290.042969 184.210938 289.371094 185.050781 288.785156 188.582031 C 288.757812 188.761719 288.496094 188.761719 288.46875 188.582031 C 287.875 185.050781 287.210938 184.210938 284.523438 183.40625 C 284.371094 183.363281 284.371094 183.144531 284.523438 183.097656 C 287.210938 182.296875 287.882812 181.457031 288.46875 177.925781 C 288.496094 177.742188 288.757812 177.742188 288.785156 177.925781 C 289.375 181.457031 290.042969 182.296875 292.730469 183.097656 C 292.878906 183.144531 292.878906 183.363281 292.730469 183.40625 Z M 292.730469 183.40625 " fill-opacity="1" fill-rule="nonzero"/><path fill="#fdd689" d="M 282.792969 188.070312 C 280.9375 188.625 280.476562 189.203125 280.066406 191.648438 C 280.046875 191.769531 279.867188 191.769531 279.847656 191.648438 C 279.441406 189.207031 278.976562 188.628906 277.121094 188.070312 C 277.019531 188.042969 277.019531 187.890625 277.121094 187.855469 C 278.976562 187.300781 279.4375 186.722656 279.847656 184.28125 C 279.867188 184.15625 280.046875 184.15625 280.066406 184.28125 C 280.472656 186.71875 280.9375 187.296875 282.792969 187.855469 C 282.898438 187.886719 282.898438 188.039062 282.792969 188.070312 Z M 282.792969 188.070312 " fill-opacity="1" fill-rule="nonzero"/><path fill="#fdd689" d="M 174.195312 147.226562 C 172.140625 147.839844 171.628906 148.480469 171.179688 151.179688 C 171.15625 151.316406 170.960938 151.316406 170.933594 151.179688 C 170.484375 148.480469 169.976562 147.839844 167.917969 147.226562 C 167.800781 147.191406 167.800781 147.023438 167.917969 146.992188 C 169.972656 146.378906 170.484375 145.738281 170.933594 143.035156 C 170.960938 142.898438 171.15625 142.898438 171.179688 143.035156 C 171.628906 145.738281 172.136719 146.378906 174.195312 146.992188 C 174.3125 147.023438 174.3125 147.191406 174.195312 147.226562 Z M 174.195312 147.226562 " fill-opacity="1" fill-rule="nonzero"/><path fill="#fdd689" d="M 264.5625 102.753906 C 262.972656 103.230469 262.578125 103.722656 262.230469 105.8125 C 262.210938 105.917969 262.058594 105.917969 262.042969 105.8125 C 261.699219 103.722656 261.300781 103.230469 259.714844 102.753906 C 259.625 102.730469 259.625 102.597656 259.714844 102.574219 C 261.300781 102.097656 261.699219 101.601562 262.042969 99.515625 C 262.0625 99.40625 262.214844 99.40625 262.230469 99.515625 C 262.578125 101.601562 262.972656 102.097656 264.5625 102.574219 C 264.648438 102.597656 264.648438 102.730469 264.5625 102.753906 Z M 264.5625 102.753906 " fill-opacity="1" fill-rule="nonzero"/><g clip-path="url(#3ffd88f6ad)"><path fill="#fdd689" d="M 73.203125 127.277344 C 70.617188 128.042969 69.976562 128.851562 69.410156 132.25 C 69.382812 132.421875 69.132812 132.421875 69.109375 132.25 C 68.542969 128.851562 67.902344 128.042969 65.316406 127.277344 C 65.167969 127.230469 65.167969 127.019531 65.316406 126.976562 C 67.902344 126.207031 68.542969 125.398438 69.109375 122.003906 C 69.136719 121.832031 69.386719 121.832031 69.410156 122.003906 C 69.976562 125.398438 70.617188 126.207031 73.203125 126.976562 C 73.351562 127.019531 73.351562 127.230469 73.203125 127.277344 Z M 73.203125 127.277344 " fill-opacity="1" fill-rule="nonzero"/></g><g fill="#ffffff" fill-opacity="1"><g transform="translate(45.535952, 249.245394)"><g><path d="M 21.515625 -19.515625 C 20.296875 -19.984375 19.179688 -20.128906 18.171875 -19.953125 C 17.160156 -19.773438 16.484375 -19.238281 16.140625 -18.34375 C 15.910156 -17.75 15.898438 -17.171875 16.109375 -16.609375 C 16.328125 -16.046875 16.820312 -15.414062 17.59375 -14.71875 C 18.375 -14.019531 19.519531 -13.15625 21.03125 -12.125 C 23.320312 -10.59375 25.007812 -9.144531 26.09375 -7.78125 C 27.1875 -6.414062 27.796875 -5.050781 27.921875 -3.6875 C 28.046875 -2.332031 27.785156 -0.804688 27.140625 0.890625 C 26.390625 2.847656 25.242188 4.285156 23.703125 5.203125 C 22.171875 6.117188 20.441406 6.570312 18.515625 6.5625 C 16.597656 6.550781 14.640625 6.160156 12.640625 5.390625 C 9.421875 4.160156 7.128906 2.34375 5.765625 -0.0625 C 4.398438 -2.476562 4.085938 -5.304688 4.828125 -8.546875 L 10.8125 -7.0625 C 10.4375 -5.050781 10.550781 -3.425781 11.15625 -2.1875 C 11.757812 -0.957031 12.921875 -0.015625 14.640625 0.640625 C 15.671875 1.035156 16.640625 1.242188 17.546875 1.265625 C 18.453125 1.285156 19.226562 1.109375 19.875 0.734375 C 20.519531 0.367188 20.976562 -0.171875 21.25 -0.890625 C 21.5625 -1.722656 21.648438 -2.429688 21.515625 -3.015625 C 21.390625 -3.609375 20.9375 -4.269531 20.15625 -5 C 19.375 -5.726562 18.09375 -6.707031 16.3125 -7.9375 C 14.195312 -9.375 12.625 -10.757812 11.59375 -12.09375 C 10.5625 -13.425781 9.960938 -14.726562 9.796875 -16 C 9.640625 -17.28125 9.832031 -18.628906 10.375 -20.046875 C 10.96875 -21.609375 11.894531 -22.835938 13.15625 -23.734375 C 14.414062 -24.628906 15.941406 -25.125 17.734375 -25.21875 C 19.523438 -25.3125 21.476562 -24.953125 23.59375 -24.140625 C 26.65625 -22.972656 28.816406 -21.34375 30.078125 -19.25 C 31.347656 -17.164062 31.6875 -14.695312 31.09375 -11.84375 L 25.125 -13.390625 C 25.507812 -14.929688 25.40625 -16.179688 24.8125 -17.140625 C 24.21875 -18.109375 23.117188 -18.898438 21.515625 -19.515625 Z M 21.515625 -19.515625 "/></g></g></g><g fill="#ffffff" fill-opacity="1"><g transform="translate(72.35764, 259.39834)"><g><path d="M 12.71875 -0.3125 C 13.894531 0.03125 14.941406 0.0507812 15.859375 -0.25 C 16.773438 -0.5625 17.515625 -1.125 18.078125 -1.9375 L 23.390625 0.609375 C 22.023438 2.453125 20.347656 3.664062 18.359375 4.25 C 16.367188 4.84375 14.160156 4.773438 11.734375 4.046875 C 9.441406 3.367188 7.644531 2.34375 6.34375 0.96875 C 5.050781 -0.40625 4.253906 -2.023438 3.953125 -3.890625 C 3.660156 -5.765625 3.847656 -7.804688 4.515625 -10.015625 C 5.117188 -12.035156 6.082031 -13.773438 7.40625 -15.234375 C 8.738281 -16.691406 10.335938 -17.6875 12.203125 -18.21875 C 14.078125 -18.757812 16.09375 -18.707031 18.25 -18.0625 C 20.3125 -17.445312 21.972656 -16.476562 23.234375 -15.15625 C 24.492188 -13.84375 25.289062 -12.21875 25.625 -10.28125 C 25.957031 -8.351562 25.769531 -6.203125 25.0625 -3.828125 L 24.546875 -2.125 L 9.6875 -6.5625 C 9.351562 -4.945312 9.453125 -3.597656 9.984375 -2.515625 C 10.515625 -1.429688 11.425781 -0.695312 12.71875 -0.3125 Z M 10.921875 -10.640625 L 20.171875 -7.875 C 20.492188 -9.375 20.367188 -10.632812 19.796875 -11.65625 C 19.234375 -12.675781 18.300781 -13.382812 17 -13.78125 C 15.75 -14.15625 14.566406 -14.066406 13.453125 -13.515625 C 12.347656 -12.972656 11.503906 -12.015625 10.921875 -10.640625 Z M 10.921875 -10.640625 "/></g></g></g><g fill="#ffffff" fill-opacity="1"><g transform="translate(96.978804, 267.000252)"><g><path d="M 31.53125 -16.578125 C 33.789062 -16.109375 35.375 -15.113281 36.28125 -13.59375 C 37.195312 -12.070312 37.367188 -9.914062 36.796875 -7.125 L 33.921875 6.9375 L 28.203125 5.765625 L 31.0625 -8.203125 C 31.300781 -9.390625 31.25 -10.359375 30.90625 -11.109375 C 30.570312 -11.867188 29.914062 -12.347656 28.9375 -12.546875 C 28.113281 -12.710938 27.347656 -12.617188 26.640625 -12.265625 C 25.941406 -11.921875 25.332031 -11.34375 24.8125 -10.53125 C 24.289062 -9.71875 23.898438 -8.691406 23.640625 -7.453125 L 21.234375 4.34375 L 15.515625 3.171875 L 18.3125 -10.484375 C 18.570312 -11.765625 18.5625 -12.804688 18.28125 -13.609375 C 18.007812 -14.410156 17.359375 -14.914062 16.328125 -15.125 C 13.566406 -15.6875 11.78125 -13.992188 10.96875 -10.046875 L 8.5625 1.75 L 2.828125 0.578125 L 7.234375 -21.015625 L 12.5625 -19.921875 L 12.015625 -17.1875 L 12.0625 -17.1875 C 13.113281 -18.09375 14.210938 -18.707031 15.359375 -19.03125 C 16.515625 -19.351562 17.796875 -19.375 19.203125 -19.09375 C 21.910156 -18.539062 23.648438 -17.003906 24.421875 -14.484375 C 25.566406 -15.453125 26.726562 -16.101562 27.90625 -16.4375 C 29.09375 -16.78125 30.300781 -16.828125 31.53125 -16.578125 Z M 31.53125 -16.578125 "/></g></g></g><g fill="#ffffff" fill-opacity="1"><g transform="translate(135.057821, 274.40695)"><g><path d="M 21.875 2.5 L 16.140625 1.84375 C 15.921875 1.175781 15.785156 0.34375 15.734375 -0.65625 C 13.554688 1.082031 11.164062 1.800781 8.5625 1.5 C 7.132812 1.332031 5.90625 0.910156 4.875 0.234375 C 3.851562 -0.429688 3.101562 -1.296875 2.625 -2.359375 C 2.144531 -3.421875 1.976562 -4.59375 2.125 -5.875 C 2.351562 -7.8125 3.164062 -9.28125 4.5625 -10.28125 C 5.96875 -11.289062 8.007812 -11.851562 10.6875 -11.96875 C 13.382812 -12.070312 15.289062 -12.253906 16.40625 -12.515625 L 16.453125 -12.9375 C 16.597656 -14.207031 16.382812 -15.113281 15.8125 -15.65625 C 15.238281 -16.207031 14.335938 -16.550781 13.109375 -16.6875 C 12.148438 -16.800781 11.320312 -16.675781 10.625 -16.3125 C 9.9375 -15.945312 9.367188 -15.304688 8.921875 -14.390625 L 3.71875 -15.796875 C 4.550781 -17.941406 5.8125 -19.4375 7.5 -20.28125 C 9.1875 -21.125 11.347656 -21.394531 13.984375 -21.09375 C 16.117188 -20.851562 17.820312 -20.382812 19.09375 -19.6875 C 20.375 -18.988281 21.269531 -18.007812 21.78125 -16.75 C 22.289062 -15.488281 22.4375 -13.898438 22.21875 -11.984375 L 21.203125 -3.046875 C 21.078125 -1.992188 21.050781 -1.109375 21.125 -0.390625 C 21.195312 0.316406 21.445312 1.28125 21.875 2.5 Z M 11.421875 -8.203125 C 9.304688 -8.023438 8.160156 -7.140625 7.984375 -5.546875 C 7.878906 -4.660156 8.050781 -3.945312 8.5 -3.40625 C 8.945312 -2.863281 9.648438 -2.535156 10.609375 -2.421875 C 11.554688 -2.316406 12.460938 -2.457031 13.328125 -2.84375 C 13.898438 -3.113281 14.34375 -3.414062 14.65625 -3.75 C 14.96875 -4.082031 15.210938 -4.550781 15.390625 -5.15625 C 15.578125 -5.769531 15.734375 -6.632812 15.859375 -7.75 L 15.984375 -8.8125 C 14.921875 -8.550781 13.398438 -8.347656 11.421875 -8.203125 Z M 11.421875 -8.203125 "/></g></g></g><g fill="#ffffff" fill-opacity="1"><g transform="translate(159.431026, 277.200379)"><g><path d="M 8.90625 -2 L 8.8125 -2 L 8.359375 8.8125 L 2.53125 8.5625 L 3.828125 -21.90625 L 9.265625 -21.671875 L 9.125 -18.4375 L 9.234375 -18.4375 C 10.035156 -19.675781 11.054688 -20.570312 12.296875 -21.125 C 13.535156 -21.6875 14.847656 -21.9375 16.234375 -21.875 C 18.003906 -21.800781 19.570312 -21.253906 20.9375 -20.234375 C 22.300781 -19.210938 23.347656 -17.796875 24.078125 -15.984375 C 24.804688 -14.179688 25.117188 -12.101562 25.015625 -9.75 C 24.921875 -7.425781 24.441406 -5.425781 23.578125 -3.75 C 22.722656 -2.082031 21.570312 -0.828125 20.125 0.015625 C 18.6875 0.859375 17.046875 1.238281 15.203125 1.15625 C 13.773438 1.101562 12.59375 0.847656 11.65625 0.390625 C 10.726562 -0.0664062 9.8125 -0.863281 8.90625 -2 Z M 14.625 -17.28125 C 13.125 -17.34375 11.859375 -16.804688 10.828125 -15.671875 C 9.796875 -14.546875 9.226562 -12.703125 9.125 -10.140625 C 9.0625 -8.828125 9.210938 -7.679688 9.578125 -6.703125 C 9.941406 -5.734375 10.488281 -4.976562 11.21875 -4.4375 C 11.945312 -3.894531 12.816406 -3.601562 13.828125 -3.5625 C 15.429688 -3.488281 16.675781 -4.023438 17.5625 -5.171875 C 18.457031 -6.316406 18.953125 -8.015625 19.046875 -10.265625 C 19.140625 -12.410156 18.789062 -14.097656 18 -15.328125 C 17.21875 -16.566406 16.09375 -17.21875 14.625 -17.28125 Z M 14.625 -17.28125 "/></g></g></g><g fill="#ffffff" fill-opacity="1"><g transform="translate(186.623795, 278.300765)"><g><path d="M 14.328125 -23 C 16.742188 -23.082031 18.613281 -22.492188 19.9375 -21.234375 C 21.269531 -19.984375 21.972656 -18.195312 22.046875 -15.875 L 22.53125 -0.71875 L 16.6875 -0.53125 L 16.25 -14.3125 C 16.207031 -15.71875 15.910156 -16.773438 15.359375 -17.484375 C 14.816406 -18.191406 13.929688 -18.523438 12.703125 -18.484375 C 12.253906 -18.460938 11.78125 -18.359375 11.28125 -18.171875 C 10.78125 -17.992188 10.359375 -17.742188 10.015625 -17.421875 C 9.597656 -17.046875 9.265625 -16.660156 9.015625 -16.265625 C 8.773438 -15.878906 8.597656 -15.382812 8.484375 -14.78125 C 8.367188 -14.175781 8.320312 -13.414062 8.34375 -12.5 L 8.734375 -0.28125 L 2.890625 -0.09375 L 1.921875 -30.546875 L 7.765625 -30.734375 L 8.109375 -19.890625 C 8.859375 -20.890625 9.789062 -21.648438 10.90625 -22.171875 C 12.019531 -22.691406 13.160156 -22.96875 14.328125 -23 Z M 14.328125 -23 "/></g></g></g><g fill="#ffffff" fill-opacity="1"><g transform="translate(213.098068, 277.419398)"><g><path d="M 0.28125 -11.25 C 0.0507812 -13.40625 0.285156 -15.382812 0.984375 -17.1875 C 1.691406 -19 2.828125 -20.484375 4.390625 -21.640625 C 5.960938 -22.796875 7.878906 -23.492188 10.140625 -23.734375 C 12.429688 -23.972656 14.46875 -23.6875 16.25 -22.875 C 18.039062 -22.070312 19.460938 -20.859375 20.515625 -19.234375 C 21.578125 -17.609375 22.222656 -15.707031 22.453125 -13.53125 C 22.691406 -11.257812 22.460938 -9.207031 21.765625 -7.375 C 21.066406 -5.550781 19.929688 -4.054688 18.359375 -2.890625 C 16.785156 -1.734375 14.859375 -1.035156 12.578125 -0.796875 C 10.285156 -0.554688 8.253906 -0.835938 6.484375 -1.640625 C 4.722656 -2.453125 3.304688 -3.6875 2.234375 -5.34375 C 1.160156 -7.007812 0.507812 -8.976562 0.28125 -11.25 Z M 10.609375 -19.015625 C 9.640625 -18.910156 8.800781 -18.546875 8.09375 -17.921875 C 7.382812 -17.304688 6.863281 -16.460938 6.53125 -15.390625 C 6.195312 -14.328125 6.097656 -13.109375 6.234375 -11.734375 C 6.378906 -10.367188 6.710938 -9.203125 7.234375 -8.234375 C 7.765625 -7.265625 8.441406 -6.546875 9.265625 -6.078125 C 10.085938 -5.617188 11.015625 -5.445312 12.046875 -5.5625 C 13.078125 -5.664062 13.953125 -6.023438 14.671875 -6.640625 C 15.390625 -7.253906 15.910156 -8.09375 16.234375 -9.15625 C 16.554688 -10.21875 16.644531 -11.445312 16.5 -12.84375 C 16.363281 -14.175781 16.03125 -15.320312 15.5 -16.28125 C 14.976562 -17.25 14.300781 -17.972656 13.46875 -18.453125 C 12.632812 -18.929688 11.679688 -19.117188 10.609375 -19.015625 Z M 10.609375 -19.015625 "/></g></g></g><g fill="#ffffff" fill-opacity="1"><g transform="translate(239.105386, 274.546669)"><g><path d="M 10.234375 -19.234375 C 8.773438 -18.984375 7.757812 -18.207031 7.1875 -16.90625 C 6.625 -15.613281 6.523438 -13.882812 6.890625 -11.71875 L 8.609375 -1.453125 L 2.84375 -0.484375 L -0.8125 -22.21875 L 4.53125 -23.109375 L 5.046875 -20.046875 L 5.125 -20.0625 C 5.6875 -21.457031 6.347656 -22.503906 7.109375 -23.203125 C 7.867188 -23.898438 8.859375 -24.347656 10.078125 -24.546875 C 10.816406 -24.671875 11.503906 -24.695312 12.140625 -24.625 C 12.773438 -24.5625 13.410156 -24.4375 14.046875 -24.25 L 13.0625 -18.796875 C 12.726562 -18.953125 12.273438 -19.078125 11.703125 -19.171875 C 11.140625 -19.273438 10.648438 -19.296875 10.234375 -19.234375 Z M 10.234375 -19.234375 "/></g></g></g><g fill="#ffffff" fill-opacity="1"><g transform="translate(257.611095, 271.507436)"><g><path d="M 10.875 -6.5625 C 12.070312 -6.84375 12.992188 -7.34375 13.640625 -8.0625 C 14.296875 -8.789062 14.664062 -9.644531 14.75 -10.625 L 20.640625 -11.046875 C 20.359375 -8.773438 19.492188 -6.890625 18.046875 -5.390625 C 16.597656 -3.890625 14.644531 -2.859375 12.1875 -2.296875 C 9.851562 -1.753906 7.785156 -1.753906 5.984375 -2.296875 C 4.191406 -2.847656 2.703125 -3.863281 1.515625 -5.34375 C 0.335938 -6.832031 -0.507812 -8.695312 -1.03125 -10.9375 C -1.507812 -13 -1.535156 -14.988281 -1.109375 -16.90625 C -0.679688 -18.832031 0.207031 -20.492188 1.5625 -21.890625 C 2.925781 -23.285156 4.707031 -24.234375 6.90625 -24.734375 C 9 -25.222656 10.921875 -25.203125 12.671875 -24.671875 C 14.421875 -24.140625 15.914062 -23.117188 17.15625 -21.609375 C 18.40625 -20.097656 19.3125 -18.132812 19.875 -15.71875 L 20.265625 -13.984375 L 5.171875 -10.5 C 5.671875 -8.9375 6.414062 -7.8125 7.40625 -7.125 C 8.40625 -6.445312 9.5625 -6.257812 10.875 -6.5625 Z M 4.234375 -14.65625 L 13.640625 -16.828125 C 13.160156 -18.285156 12.421875 -19.316406 11.421875 -19.921875 C 10.421875 -20.535156 9.257812 -20.691406 7.9375 -20.390625 C 6.664062 -20.097656 5.6875 -19.441406 5 -18.421875 C 4.3125 -17.398438 4.054688 -16.144531 4.234375 -14.65625 Z M 4.234375 -14.65625 "/></g></g></g><g fill="#ffffff" fill-opacity="1"><g transform="translate(282.073027, 265.659864)"><g><path d="M -4.125 -24.890625 L -5.609375 -30.09375 L 0 -31.703125 L 1.484375 -26.5 Z M 2.78125 -0.796875 L -3.296875 -21.984375 L 2.3125 -23.59375 L 8.390625 -2.40625 Z M 2.78125 -0.796875 "/></g></g></g><g fill="#ffffff" fill-opacity="1"><g transform="translate(293.807864, 262.309631)"><g><path d="M 3.0625 -28.90625 C 2.507812 -28.726562 2.101562 -28.492188 1.84375 -28.203125 C 1.59375 -27.921875 1.46875 -27.53125 1.46875 -27.03125 C 1.476562 -26.53125 1.613281 -25.875 1.875 -25.0625 L 2.25 -23.9375 L 6.296875 -25.265625 L 7.734375 -20.875 L 3.6875 -19.546875 L 9.109375 -2.984375 L 3.546875 -1.15625 L -1.875 -17.71875 L -4.9375 -16.71875 L -6.375 -21.109375 L -3.3125 -22.109375 L -3.734375 -23.40625 C -4.203125 -24.820312 -4.4375 -26.101562 -4.4375 -27.25 C -4.4375 -28.394531 -4.046875 -29.457031 -3.265625 -30.4375 C -2.484375 -31.425781 -1.160156 -32.226562 0.703125 -32.84375 C 1.390625 -33.0625 2.21875 -33.257812 3.1875 -33.4375 C 4.164062 -33.613281 4.945312 -33.71875 5.53125 -33.75 L 5.828125 -29.265625 C 5.328125 -29.273438 4.828125 -29.242188 4.328125 -29.171875 C 3.828125 -29.109375 3.40625 -29.019531 3.0625 -28.90625 Z M 3.0625 -28.90625 "/></g></g></g><g fill="#ffffff" fill-opacity="1"><g transform="translate(308.133621, 257.730874)"><g><path d="M 8.71875 -10.21875 L 8.78125 -10.25 C 8.625 -11.832031 8.535156 -12.867188 8.515625 -13.359375 L 7.875 -26.71875 L 13.515625 -28.90625 L 13.828125 -4.703125 C 13.867188 -1.003906 13.515625 1.539062 12.765625 2.9375 C 11.992188 4.363281 10.566406 5.484375 8.484375 6.296875 C 7.535156 6.660156 6.222656 6.96875 4.546875 7.21875 L 3.84375 2.703125 C 4.738281 2.628906 5.425781 2.5 5.90625 2.3125 C 6.5625 2.050781 7.054688 1.738281 7.390625 1.375 C 7.722656 1.007812 7.953125 0.476562 8.078125 -0.21875 C 8.210938 -0.914062 8.265625 -1.890625 8.234375 -3.140625 L -7.640625 -20.6875 L -1.84375 -22.9375 L 6.71875 -12.8125 C 7.226562 -12.207031 7.894531 -11.34375 8.71875 -10.21875 Z M 8.71875 -10.21875 "/></g></g></g></svg>